<?xml version="1.0" encoding="UTF-8" standalone="no"?>
<!-- Created with Inkscape (http://www.inkscape.org/) -->

<svg
   width="16.0px"
   height="16.0px"
   viewBox="0 0 16.0 16.0"
   version="1.1"
   id="SVGRoot"
   sodipodi:docname="fieldguidelogo.svg"
   inkscape:version="1.1.1 (c3084ef, 2021-09-22)"
   xmlns:inkscape="http://www.inkscape.org/namespaces/inkscape"
   xmlns:sodipodi="http://sodipodi.sourceforge.net/DTD/sodipodi-0.dtd"
   xmlns="http://www.w3.org/2000/svg"
   xmlns:svg="http://www.w3.org/2000/svg">
  <sodipodi:namedview
     id="namedview14"
     pagecolor="#505050"
     bordercolor="#eeeeee"
     borderopacity="1"
     inkscape:pageshadow="0"
     inkscape:pageopacity="0"
     inkscape:pagecheckerboard="0"
     inkscape:document-units="px"
     showgrid="false"
     inkscape:zoom="24.897473"
     inkscape:cx="11.165792"
     inkscape:cy="7.5911319"
     inkscape:window-width="1199"
     inkscape:window-height="726"
     inkscape:window-x="59"
     inkscape:window-y="25"
     inkscape:window-maximized="0"
     inkscape:current-layer="layer1"
     showguides="true">
    <inkscape:grid
       type="xygrid"
       id="grid20" />
  </sodipodi:namedview>
  <defs
     id="defs9">
    <linearGradient
       id="linearGradient7927"
       inkscape:swatch="solid">
      <stop
         style="stop-color:#420c14;stop-opacity:1;"
         offset="0"
         id="stop7925" />
    </linearGradient>
    <inkscape:path-effect
       effect="fill_between_many"
       method="originald"
       linkedpaths="#path78,0,1|"
       id="path-effect6507" />
  </defs>
  <g
     inkscape:label="Layer 1"
     inkscape:groupmode="layer"
     id="layer1">
    <path
       inkscape:original-d="M 0,0"
       inkscape:path-effect="#path-effect6507"
       d="M 1.7885877,13.797159 C 8.3162398,17.382878 17.931261,12.472076 12.208553,5.1864781 12.222297,4.5417184 12.748575,4.4530357 14.087474,5.2959514 13.621608,4.5324649 13.124772,3.0575745 15.494115,3.7170602 14.132627,2.263747 11.909045,0.51764435 8.8132304,0.74637747 9.6640271,1.5169757 10.196697,2.2621468 10.12798,3.2472598 9.5011088,2.4980226 5.9524889,1.1602659 3.4487243,3.403408 3.3195817,3.5191078 5.7127406,1.0313956 4.169651,1.9891754 1.872104,3.415239 3.4605883,2.1865921 3.7015096,0.90427669 0.06755616,2.9092772 0.80180273,7.160183 1.6366918,8.2598494 L 2.3730743,8.0487505 C 3.1817217,6.7881698 3.7338013,5.7698836 4.4210758,5.6781538 11.908565,4.6788064 15.768567,15.364048 1.7885877,13.797159 Z"
       id="path6509" />
    <path
       style="mix-blend-mode:normal;fill:#420c14;fill-opacity:1;stroke:#420c14;stroke-width:0.1;stroke-linecap:butt;stroke-linejoin:miter;stroke-miterlimit:4;stroke-dasharray:none;stroke-opacity:1"
       d="M 1.7885877,13.797159 C 8.3162398,17.382878 17.931261,12.472076 12.208553,5.1864781 12.222297,4.5417184 12.748575,4.4530357 14.087474,5.2959514 13.621608,4.5324649 13.124772,3.0575745 15.494115,3.7170602 14.132627,2.263747 11.909045,0.51764435 8.8132304,0.74637747 9.6640271,1.5169757 10.196697,2.2621468 10.12798,3.2472598 9.5011088,2.4980226 5.9524889,1.1602659 3.4487243,3.403408 3.3195817,3.5191078 5.7127406,1.0313956 4.169651,1.9891754 1.872104,3.415239 3.4605883,2.1865921 3.7015096,0.90427669 0.06755616,2.9092772 0.80180273,7.160183 1.6366918,8.2598494 L 2.3730743,8.0487505 C 3.1817217,6.7881698 3.7338013,5.7698836 4.4210758,5.6781538 11.908565,4.6788064 15.768567,15.364048 1.7885877,13.797159 Z"
       id="path78"
       sodipodi:nodetypes="ccccccssccssc" />
  </g>
</svg>
